<?xml version="1.0" encoding="utf-8"?>
<!-- Generator: Adobe Illustrator 13.0.0, SVG Export Plug-In . SVG Version: 6.00 Build 14948)  -->
<!DOCTYPE svg PUBLIC "-//W3C//DTD SVG 1.1//EN" "http://www.w3.org/Graphics/SVG/1.1/DTD/svg11.dtd">
<svg version="1.1" id="Layer_4" xmlns="http://www.w3.org/2000/svg" xmlns:xlink="http://www.w3.org/1999/xlink" x="0px" y="0px"
	 width="36.836px" height="33.348px" viewBox="0 0 36.836 33.348" enable-background="new 0 0 36.836 33.348" xml:space="preserve">
<path fill="#273A56" d="M30.891,24.929H16.645c-0.259-0.002-0.467,0.209-0.469,0.469l-0.002,1.572
	c-0.001,0.26,0.208,0.468,0.471,0.468l14.247,0.001c0.256-0.003,0.469-0.211,0.47-0.468l-0.001-1.575
	C31.357,25.137,31.148,24.927,30.891,24.929z M36.834,8.622c-0.002-0.142-0.062-0.282-0.166-0.385l-0.206-0.205L28.815,0.37
	l-0.212-0.208c-0.102-0.102-0.238-0.158-0.381-0.161L27.927,0L11.24,0.007c-0.299,0-0.542,0.24-0.543,0.542
	c0,0,0.003,3.58,0.002,7.746C6.928,9.14,4.124,12.519,4.16,16.538c0.016,1.734,0.555,3.339,1.467,4.668l-5.18,5.272
	c-0.604,0.616-0.595,1.604,0.02,2.207c0.615,0.606,1.603,0.598,2.207-0.018l5.173-5.267c0.839,0.568,1.792,0.968,2.804,1.203
	l0.054,8.2c0,0.297,0.243,0.541,0.539,0.543l25.051-0.004c0.299-0.001,0.538-0.244,0.54-0.543L36.834,8.622z M7.18,16.512
	c-0.027-2.959,2.35-5.38,5.311-5.406c2.958-0.026,5.378,2.351,5.406,5.309c0.026,2.964-2.35,5.383-5.309,5.409
	C9.626,21.85,7.207,19.475,7.18,16.512z M13.217,30.833c0-0.296,0-2.732,0-6.055c2.601-0.212,4.87-1.578,6.251-3.62h11.423
	c0.262-0.002,0.473-0.212,0.47-0.47v-1.57c0.001-0.259-0.21-0.471-0.468-0.469H20.588c0.196-0.725,0.334-1.475,0.327-2.262
	c-0.005-0.519-0.074-1.021-0.166-1.511l10.144,0.002c0.258-0.003,0.466-0.213,0.469-0.473l-0.001-1.575
	c0-0.255-0.213-0.467-0.47-0.468l-11.089,0.002c-1.333-2.357-3.755-3.98-6.589-4.212c0.001-3.107,0-5.351-0.002-5.635
	c0.966-0.001,12.507-0.003,13.472-0.003c-0.002,0.921,0,7.092,0,7.092c0.002,0.298,0.241,0.545,0.54,0.545
	c0,0,6.174-0.001,7.094-0.003c-0.001,0.995,0,19.688,0.001,20.682C33.313,30.831,14.22,30.832,13.217,30.833z"/>
</svg>
