<?xml version="1.0" encoding="utf-8"?>
<!-- Generator: Adobe Illustrator 13.0.0, SVG Export Plug-In . SVG Version: 6.00 Build 14948)  -->
<!DOCTYPE svg PUBLIC "-//W3C//DTD SVG 1.1//EN" "http://www.w3.org/Graphics/SVG/1.1/DTD/svg11.dtd">
<svg version="1.1" id="Layer_2" xmlns="http://www.w3.org/2000/svg" xmlns:xlink="http://www.w3.org/1999/xlink" x="0px" y="0px"
	 width="44.721px" height="35.454px" viewBox="0 0 44.721 35.454" enable-background="new 0 0 44.721 35.454" xml:space="preserve">
<path fill="#273A56" d="M43.225,1.161c-11.474-2.94-18.277,0.42-20.865,2.19c-2.591-1.763-9.404-5.124-20.862-2.19
	C0.615,1.384,0,2.178,0,3.088v27.99c0,0.613,0.278,1.187,0.764,1.565c0.481,0.379,1.102,0.513,1.698,0.366
	c10.706-2.615,16.666,0.574,18.731,2.068c0.699,0.502,1.636,0.502,2.332,0c2.067-1.494,8.025-4.684,18.73-2.068
	c0.598,0.146,1.234,0.008,1.709-0.373c0.478-0.372,0.756-0.945,0.756-1.559V3.088C44.721,2.178,44.105,1.384,43.225,1.161z
	 M21.531,32.523c-2.929-1.753-9.196-4.193-19.208-1.857V3.354c11.308-2.816,17.452,0.911,19.208,2.259V32.523z M42.397,30.666
	c-10.011-2.336-16.278,0.102-19.208,1.857V5.613c1.757-1.354,7.884-5.078,19.208-2.259V30.666z M7.177,8.194
	c-0.25,0.028-0.438,0.24-0.438,0.492v0.707c0,0.143,0.061,0.278,0.168,0.372c0.106,0.097,0.249,0.139,0.392,0.124
	c3.421-0.424,6.595-0.273,9.431,0.454c0.148,0.04,0.307,0.003,0.429-0.087c0.122-0.094,0.192-0.24,0.192-0.396V9.14
	c0-0.229-0.156-0.428-0.378-0.483C13.995,7.918,10.699,7.763,7.177,8.194z M16.973,13.438c-2.975-0.739-6.271-0.895-9.796-0.463
	c-0.25,0.032-0.438,0.242-0.438,0.496v0.706c0,0.143,0.061,0.28,0.168,0.374c0.106,0.094,0.249,0.139,0.392,0.12
	c3.423-0.424,6.597-0.273,9.431,0.454c0.148,0.038,0.307,0.007,0.429-0.087c0.122-0.094,0.192-0.24,0.192-0.393V13.92
	C17.351,13.694,17.194,13.493,16.973,13.438z M16.973,18.218c-2.978-0.735-6.273-0.892-9.796-0.464
	c-0.25,0.033-0.438,0.244-0.438,0.497v0.706c0,0.143,0.061,0.279,0.168,0.373c0.106,0.094,0.249,0.139,0.392,0.119
	c3.421-0.425,6.595-0.271,9.431,0.457c0.148,0.035,0.307,0.004,0.429-0.09c0.122-0.096,0.192-0.24,0.192-0.393v-0.723
	C17.351,18.474,17.194,18.273,16.973,18.218z M16.973,23.002c-2.975-0.738-6.271-0.895-9.796-0.464
	c-0.25,0.029-0.438,0.243-0.438,0.493v0.706c0,0.143,0.061,0.279,0.168,0.376c0.106,0.095,0.249,0.137,0.392,0.119
	c3.423-0.428,6.597-0.274,9.431,0.455c0.148,0.039,0.307,0.006,0.429-0.092c0.122-0.094,0.192-0.236,0.192-0.391v-0.721
	C17.351,23.254,17.194,23.057,16.973,23.002z M27.371,9.14v0.72c0,0.156,0.07,0.302,0.191,0.396c0.121,0.094,0.28,0.127,0.43,0.087
	c2.836-0.727,6.009-0.878,9.43-0.454c0.143,0.016,0.285-0.026,0.392-0.124c0.106-0.094,0.169-0.229,0.169-0.372V8.686
	c0-0.252-0.188-0.464-0.438-0.492c-3.521-0.431-6.817-0.276-9.796,0.463C27.525,8.712,27.371,8.91,27.371,9.14z M37.544,12.975
	c-3.524-0.432-6.819-0.272-9.796,0.463c-0.223,0.055-0.377,0.256-0.377,0.483v0.723c0,0.153,0.07,0.299,0.191,0.393
	c0.121,0.094,0.28,0.125,0.43,0.087c2.834-0.727,6.007-0.878,9.43-0.454c0.143,0.019,0.285-0.026,0.392-0.12
	s0.169-0.231,0.169-0.374V13.47C37.982,13.217,37.795,13.006,37.544,12.975z M37.544,17.754c-3.521-0.428-6.817-0.271-9.796,0.464
	c-0.223,0.056-0.377,0.256-0.377,0.483v0.723c0,0.152,0.07,0.297,0.191,0.393c0.121,0.094,0.28,0.125,0.43,0.09
	c2.836-0.729,6.009-0.882,9.43-0.457c0.143,0.02,0.285-0.025,0.392-0.119s0.169-0.23,0.169-0.373v-0.706
	C37.982,17.998,37.795,17.787,37.544,17.754z M37.544,22.538c-3.524-0.431-6.819-0.274-9.796,0.464
	c-0.223,0.055-0.377,0.252-0.377,0.482v0.721c0,0.154,0.07,0.297,0.191,0.391c0.121,0.098,0.28,0.131,0.43,0.092
	c2.834-0.729,6.007-0.883,9.43-0.455c0.143,0.018,0.285-0.024,0.392-0.119c0.106-0.097,0.169-0.233,0.169-0.376v-0.706
	C37.982,22.781,37.795,22.567,37.544,22.538z"/>
</svg>
