<?xml version="1.0" encoding="utf-8"?>
<!-- Generator: Adobe Illustrator 13.0.0, SVG Export Plug-In . SVG Version: 6.00 Build 14948)  -->
<!DOCTYPE svg PUBLIC "-//W3C//DTD SVG 1.1//EN" "http://www.w3.org/Graphics/SVG/1.1/DTD/svg11.dtd">
<svg version="1.1" id="Layer_1" xmlns="http://www.w3.org/2000/svg" xmlns:xlink="http://www.w3.org/1999/xlink" x="0px" y="0px"
	 width="48.295px" height="32.587px" viewBox="0 0 48.295 32.587" enable-background="new 0 0 48.295 32.587" xml:space="preserve">
<path fill="#273A56" d="M46.035,18.153v-5.315c0.282-0.327,0.451-0.759,0.445-1.239c-0.012-0.702-0.39-1.328-0.963-1.59
	C45.514,10.006,23.845,0.13,23.845,0.13c-0.388-0.174-0.828-0.174-1.211,0.003c0.004-0.003-21.666,9.873-21.666,9.873
	C0.391,10.271,0.012,10.894,0,11.594c-0.012,0.69,0.339,1.326,0.894,1.617c0.003,0.003,6.812,3.539,8.841,4.593v9.401
	c0,0.549,0.217,1.051,0.595,1.382c1.031,0.979,5.025,4.171,12.943,3.993c7.854,0.178,11.845-3.015,12.881-3.996
	c0.375-0.328,0.592-0.83,0.592-1.379v-9.401l7.63-3.964v4.313c-1.3,0.376-2.261,1.585-2.261,3.03c0,1.741,1.387,3.161,3.09,3.161
	s3.09-1.42,3.09-3.161C48.295,19.738,47.334,18.529,46.035,18.153z M34.589,27.086c-0.906,0.813-4.386,3.494-11.315,3.338
	c-7.127,0.16-10.618-2.635-11.381-3.338v-8.439l10.79,5.604c0.358,0.186,0.765,0.186,1.118,0c-0.001,0,7.549-3.922,10.789-5.604
	V27.086z M23.241,22.672C21.703,21.871,2.565,11.648,2.565,11.648c3.415-1.556,18.42-8.394,20.675-9.421
	c2.244,1.02,17.254,7.862,20.675,9.421C41.785,12.754,23.241,22.672,23.241,22.672z M45.205,22.686
	c-0.789,0-1.431-0.675-1.431-1.502c0-0.826,0.642-1.5,1.431-1.5s1.43,0.674,1.43,1.5C46.635,22.011,45.994,22.686,45.205,22.686z"/>
</svg>
